<svg width="212" height="220" viewBox="0 0 212 220" fill="none" xmlns="http://www.w3.org/2000/svg" xmlns:xlink="http://www.w3.org/1999/xlink">
<path d="M150.833,68L132.5,68C127.437,68 123.333,70.649 123.333,73.917L123.333,144.917C123.333,148.184 127.437,150.833 132.5,150.833L150.833,150.833C155.896,150.833 160,148.184 160,144.917L160,73.917C160,70.649 155.896,68 150.833,68Z" fill="#000000"/>
<path d="M6,109L1,109L1,109L6,109ZM106,214L106,219L106,214ZM206,109L211,109L211,109L206,109ZM1,109C1,123.412 3.703,137.689 8.961,151.017L18.263,147.347C13.47,135.196 11,122.165 11,109L1,109ZM8.961,151.017C14.219,164.344 21.931,176.47 31.669,186.694L38.91,179.798C30.076,170.522 23.056,159.497 18.263,147.347L8.961,151.017ZM31.669,186.694C41.407,196.92 52.981,205.044 65.737,210.592L69.726,201.422C58.217,196.417 47.743,189.073 38.91,179.798L31.669,186.694ZM65.737,210.592C78.494,216.14 92.176,219 106,219L106,209C93.559,209 81.234,206.428 69.726,201.422L65.737,210.592ZM106,219C119.824,219 133.506,216.14 146.263,210.592L142.274,201.422C130.766,206.428 118.441,209 106,209L106,219ZM146.263,210.592C159.019,205.044 170.593,196.92 180.331,186.694L173.09,179.798C164.257,189.073 153.783,196.417 142.274,201.422L146.263,210.592ZM180.331,186.694C190.069,176.47 197.781,164.344 203.039,151.017L193.737,147.347C188.944,159.497 181.924,170.522 173.09,179.798L180.331,186.694ZM203.039,151.017C208.296,137.689 211,123.412 211,109L201,109C201,122.165 198.53,135.196 193.737,147.347L203.039,151.017ZM211,109C211,79.903 199.994,51.951 180.331,31.306L173.09,38.202C190.935,56.939 201,82.402 201,109L211,109ZM180.331,31.306C160.661,10.652 133.929,-1 106,-1L106,9C131.115,9 155.253,19.473 173.09,38.202L180.331,31.306ZM106,-1C78.071,-1 51.339,10.652 31.669,31.306L38.91,38.202C56.747,19.473 80.885,9 106,9L106,-1ZM31.669,31.306C12.006,51.951 1,79.903 1,109L11,109C11,82.402 21.065,56.939 38.91,38.202L31.669,31.306Z" fill="#000000"/>
</svg>
