<svg width="108" height="98" viewBox="0 0 108 98" fill="none" xmlns="http://www.w3.org/2000/svg" xmlns:xlink="http://www.w3.org/1999/xlink">
<path d="M4.403,97L101.606,97C102.59,96.996 103.555,96.667 104.396,96.048C105.237,95.43 105.924,94.545 106.381,93.488C106.838,92.432 107.049,91.245 106.991,90.054C106.932,88.863 106.607,87.714 106.05,86.731L57.449,1.646C55.435,-1.882 50.585,-1.882 48.566,1.646L-0.036,86.731C-0.598,87.712 -0.928,88.862 -0.99,90.054C-1.051,91.247 -0.841,92.437 -0.384,93.496C0.074,94.554 0.762,95.441 1.606,96.058C2.45,96.676 3.417,97.002 4.403,97Z" transform="rotate(-180 53 48)" fill="#000000"/>
</svg>
