<svg width="144" height="80" viewBox="0 0 144 80" fill="none" xmlns="http://www.w3.org/2000/svg" xmlns:xlink="http://www.w3.org/1999/xlink">
<path d="M1.605,4.486C2.457,3.047 3.899,1.817 5.749,0.952C7.599,0.087 9.775,-0.375 12,-0.375L87,-0.375C101.918,-0.375 116.226,3.773 126.775,11.158C137.324,18.542 143.25,28.557 143.25,39C143.25,49.443 137.324,59.458 126.775,66.842C116.226,74.227 101.918,78.375 87,78.375L19.5,78.375C16.516,78.375 13.655,77.545 11.545,76.068C9.435,74.592 8.25,72.589 8.25,70.5C8.25,68.411 9.435,66.408 11.545,64.932C13.655,63.455 16.516,62.625 19.5,62.625L87,62.625C95.951,62.625 104.536,60.136 110.865,55.705C117.194,51.275 120.75,45.266 120.75,39C120.75,32.734 117.194,26.725 110.865,22.295C104.536,17.864 95.951,15.375 87,15.375L39.158,15.375L46.208,20.31C48.256,21.796 49.388,23.786 49.361,25.85C49.334,27.915 48.15,29.89 46.063,31.349C43.976,32.809 41.154,33.636 38.204,33.653C35.255,33.67 32.413,32.875 30.293,31.44L4.042,13.065C2.47,11.964 1.4,10.561 0.966,9.034C0.532,7.508 0.754,5.925 1.605,4.486Z" clip-rule="evenodd" fill-rule="evenodd" fill="#000000"/>
</svg>
