<svg width="128" height="88" viewBox="0 0 128 88" fill="none" xmlns="http://www.w3.org/2000/svg" xmlns:xlink="http://www.w3.org/1999/xlink">
<path d="M103.647,1.384C99.67,-0.09 94.941,2.09 94.559,5.565C94.484,6.213 94.408,6.943 94.34,7.75C87.398,7.779 80.603,9.167 74.709,11.76C68.814,14.354 64.05,18.052 60.946,22.443L57.167,27.789L53.388,22.443C50.266,18.027 45.467,14.314 39.529,11.719C33.591,9.123 26.748,7.749 19.768,7.75L9.333,7.75C7.987,7.75 6.654,7.937 5.411,8.302C4.167,8.666 3.037,9.2 2.086,9.873C1.134,10.547 0.379,11.346 -0.136,12.226C-0.652,13.105 -0.917,14.048 -0.917,15C-0.917,15.952 -0.652,16.895 -0.136,17.774C0.379,18.654 1.134,19.453 2.086,20.126C3.037,20.8 4.167,21.334 5.411,21.698C6.654,22.062 7.987,22.25 9.333,22.25L19.775,22.25C22.947,22.25 26.057,22.875 28.756,24.055C31.454,25.234 33.635,26.922 35.054,28.93L45.707,44L35.047,59.07C33.63,61.076 31.451,62.763 28.755,63.943C26.059,65.122 22.952,65.748 19.782,65.75L9.333,65.75C6.615,65.75 4.008,66.514 2.086,67.873C0.163,69.233 -0.917,71.077 -0.917,73C-0.917,74.923 0.163,76.767 2.086,78.126C4.008,79.486 6.615,80.25 9.333,80.25L19.775,80.25C26.755,80.251 33.598,78.876 39.536,76.281C45.474,73.686 50.273,69.972 53.395,65.557L57.167,60.211L60.946,65.557C64.049,69.947 68.811,73.643 74.703,76.237C80.595,78.83 87.387,80.219 94.326,80.25C94.408,81.284 94.497,82.198 94.593,82.981C94.962,86.224 99.267,88.085 103.203,86.63C105.8,85.673 109.578,84.184 114.075,82.116C117.641,80.488 121.096,78.741 124.427,76.881C127.981,74.895 128.11,71.004 124.769,69.119C121.399,67.23 117.903,65.455 114.293,63.802C110.844,62.213 107.291,60.739 103.647,59.384C99.67,57.91 94.941,60.09 94.559,63.565C94.484,64.213 94.408,64.943 94.34,65.75C91.205,65.721 88.141,65.083 85.485,63.905C82.828,62.727 80.681,61.054 79.279,59.07L68.626,44L79.286,28.93C80.686,26.949 82.829,25.278 85.48,24.1C88.131,22.922 91.189,22.282 94.32,22.25C94.408,23.284 94.497,24.198 94.593,24.981C94.962,28.224 99.267,30.085 103.203,28.63C106.926,27.247 110.554,25.741 114.075,24.116C118.585,22.047 122.09,20.191 124.427,18.881C127.981,16.895 128.11,13.004 124.769,11.119C121.399,9.23 117.903,7.456 114.293,5.802C110.844,4.213 107.291,2.739 103.647,1.384Z" fill="#000000"/>
</svg>
