<svg width="126" height="108" viewBox="0 0 126 108" fill="none" xmlns="http://www.w3.org/2000/svg" xmlns:xlink="http://www.w3.org/1999/xlink">
<path d="M115.5,0L10.5,0C7.715,0 5.045,0.948 3.075,2.636C1.106,4.324 0,6.613 0,9L0,99C0,101.387 1.106,103.676 3.075,105.364C5.045,107.052 7.715,108 10.5,108L115.5,108C118.285,108 120.955,107.052 122.925,105.364C124.894,103.676 126,101.387 126,99L126,9C126,6.613 124.894,4.324 122.925,2.636C120.955,0.948 118.285,0 115.5,0ZM99.75,58.5L68.25,58.5L68.25,85.5C68.25,86.693 67.697,87.838 66.712,88.682C65.728,89.526 64.392,90 63,90C61.608,90 60.272,89.526 59.288,88.682C58.303,87.838 57.75,86.693 57.75,85.5L57.75,58.5L26.25,58.5C24.858,58.5 23.522,58.026 22.538,57.182C21.553,56.338 21,55.193 21,54C21,52.807 21.553,51.662 22.538,50.818C23.522,49.974 24.858,49.5 26.25,49.5L57.75,49.5L57.75,22.5C57.75,21.307 58.303,20.162 59.288,19.318C60.272,18.474 61.608,18 63,18C64.392,18 65.728,18.474 66.712,19.318C67.697,20.162 68.25,21.307 68.25,22.5L68.25,49.5L99.75,49.5C101.142,49.5 102.478,49.974 103.462,50.818C104.447,51.662 105,52.807 105,54C105,55.193 104.447,56.338 103.462,57.182C102.478,58.026 101.142,58.5 99.75,58.5Z" fill="#000000"/>
</svg>
